<svg width="40" height="40" viewBox="0 0 40 40" fill="none" xmlns="http://www.w3.org/2000/svg">
<path d="M16.39 5.11657C18.1502 2.62185 21.8498 2.62185 23.61 5.11657C24.5932 6.51019 26.2908 7.21337 27.9716 6.9232C30.9802 6.40377 33.5962 9.01982 33.0768 12.0284C32.7866 13.7092 33.4898 15.4068 34.8834 16.39C37.3782 18.1502 37.3782 21.8498 34.8834 23.61C33.4898 24.5932 32.7866 26.2908 33.0768 27.9716C33.5962 30.9802 30.9802 33.5962 27.9716 33.0768C26.2908 32.7866 24.5932 33.4898 23.61 34.8834C21.8498 37.3782 18.1502 37.3782 16.39 34.8834C15.4068 33.4898 13.7092 32.7866 12.0284 33.0768C9.01982 33.5962 6.40377 30.9802 6.9232 27.9716C7.21337 26.2908 6.51019 24.5932 5.11657 23.61C2.62185 21.8498 2.62185 18.1502 5.11657 16.39C6.51019 15.4068 7.21337 13.7092 6.9232 12.0284C6.40377 9.01982 9.01982 6.40377 12.0284 6.9232C13.7092 7.21337 15.4068 6.51019 16.39 5.11657Z" fill="#4285F4"/>
<path d="M16.5909 23.9366L12.1165 19.5289L10.625 20.9981L16.5909 26.875L29.375 14.2817L27.8835 12.8125L16.5909 23.9366Z" fill="white"/>
</svg>
