<svg width="8" height="28" viewBox="0 0 8 28" fill="none" xmlns="http://www.w3.org/2000/svg">
<path d="M4.00008 7.33332C5.83341 7.33332 7.33341 5.83332 7.33341 3.99999C7.33341 2.16666 5.83341 0.666656 4.00008 0.666656C2.16675 0.666656 0.666748 2.16666 0.666748 3.99999C0.666748 5.83332 2.16675 7.33332 4.00008 7.33332ZM4.00008 10.6667C2.16675 10.6667 0.666748 12.1667 0.666748 14C0.666748 15.8333 2.16675 17.3333 4.00008 17.3333C5.83341 17.3333 7.33341 15.8333 7.33341 14C7.33341 12.1667 5.83341 10.6667 4.00008 10.6667ZM4.00008 20.6667C2.16675 20.6667 0.666748 22.1667 0.666748 24C0.666748 25.8333 2.16675 27.3333 4.00008 27.3333C5.83341 27.3333 7.33341 25.8333 7.33341 24C7.33341 22.1667 5.83341 20.6667 4.00008 20.6667Z" fill="#A5A5A5"/>
</svg>
