<svg width="34" height="17" viewBox="0 0 34 17" fill="none" xmlns="http://www.w3.org/2000/svg">
<path d="M3.16667 8.33334C3.16667 5.48334 5.48334 3.16667 8.33334 3.16667H15V0H8.33334C3.73333 0 0 3.73334 0 8.33334C0 12.9333 3.73333 16.6667 8.33334 16.6667H15V13.5H8.33334C5.48334 13.5 3.16667 11.1833 3.16667 8.33334ZM10 10H23.3333V6.66667H10V10ZM25 0H18.3333V3.16667H25C27.85 3.16667 30.1667 5.48334 30.1667 8.33334C30.1667 11.1833 27.85 13.5 25 13.5H18.3333V16.6667H25C29.6 16.6667 33.3333 12.9333 33.3333 8.33334C33.3333 3.73334 29.6 0 25 0Z" fill="#A5A5A5"/>
</svg>
